<svg xmlns="http://www.w3.org/2000/svg" xmlns:svg="http://www.w3.org/2000/svg" id="svg4787" width="306.453" height="114.303" version="1.1"><defs id="defs4789"><marker id="Arrow1Mend-6" orient="auto" refX="0" refY="0" style="overflow:visible"><path id="path11282-6" d="M 0,0 5,-5 -12.5,0 5,5 0,0 z" style="fill-rule:evenodd;stroke:#000;stroke-width:1pt" transform="matrix(-0.4,0,0,-0.4,-4,0)"/></marker><marker id="marker4807" orient="auto" refX="0" refY="0" style="overflow:visible"><path id="path4809" d="M 0,0 5,-5 -12.5,0 5,5 0,0 z" style="fill-rule:evenodd;stroke:#000;stroke-width:1pt" transform="matrix(-0.4,0,0,-0.4,-4,0)"/></marker><marker id="marker4811" orient="auto" refX="0" refY="0" style="overflow:visible"><path id="path4813" d="M 0,0 5,-5 -12.5,0 5,5 0,0 z" style="fill-rule:evenodd;stroke:#000;stroke-width:1pt" transform="matrix(-0.4,0,0,-0.4,-4,0)"/></marker><marker id="marker4815" orient="auto" refX="0" refY="0" style="overflow:visible"><path id="path4817" d="M 0,0 5,-5 -12.5,0 5,5 0,0 z" style="fill-rule:evenodd;stroke:#000;stroke-width:1pt" transform="matrix(-0.4,0,0,-0.4,-4,0)"/></marker></defs><metadata id="metadata4792"/><g id="layer1" transform="translate(-49.630583,-106.63936)"><g id="g4587" transform="translate(-201.74344,-1102.3322)"><path id="path4330-9-7-7-2" d="m 435.293,1252.6742 h -9.188 l -0.459,0.459 v 18.225 l 0.33002,2.389 h -0.362 v 0.245 h -0.307 v -0.306 h -0.611 v 0.244 h -0.31101 v -0.367 h -0.48599 v 0.307 H 422.795 l -2.022,-0.367 v -0.92 h 0.858 l 0.302,-1.47 h 2.728 c 0.188,0 0.339,-0.152 0.339,-0.339 v -13.412 c 0,-0.187 -0.149,-0.338 -0.339,-0.338 h -17.026 c -0.187,0 -0.339,0.152 -0.339,0.338 v 13.412 c 0,0.187 0.152,0.339 0.339,0.339 h 3.016 l 0.199,1.47 h 1.409 l -3.4,3.4 -0.705,1.502 c 0,0 2.941,1.102 6.678,1.102 3.737,0 9.679,-0.857 10.476,-0.857 0.797,0 4.84,0 4.84,0 v -1.225 l -0.137,-1.068 h 1.744 c -0.2,0.106 -0.322,0.244 -0.322,0.396 v 0.979 c 0,0.341 0.604,0.613 1.352,0.613 0.742,0 1.348,-0.272 1.348,-0.613 v -0.979 c 0,-0.339 -0.604,-0.611 -1.348,-0.611 -0.188,0 -0.364,0.019 -0.525,0.049 v -0.17 h -2.29 l -0.055,-0.432 h 5.382 l -0.004,-21.995 0,0 z m -26.771,17.03 v -11.456 h 15.07001 v 11.456 H 408.522 z" style="fill:#000;fill-opacity:1;stroke:none"/><g id="g4645-4-9-6" transform="translate(-19.045837,341.21423)"><rect style="color:#000;fill:#fff;fill-opacity:1;fill-rule:nonzero;stroke:#000;stroke-width:1.09000003;stroke-linecap:butt;stroke-linejoin:miter;stroke-miterlimit:4;stroke-opacity:1;stroke-dasharray:none;stroke-dashoffset:0;marker:none;visibility:visible;display:inline;overflow:visible;enable-background:accumulate" id="rect5260-1-3-8-58-1-60-2-0-9" width="10" height="10" x="504.046" y="906.148" ry="0"/><rect style="color:#000;fill:#fff;fill-opacity:1;fill-rule:nonzero;stroke:#000;stroke-width:1.09000003;stroke-linecap:butt;stroke-linejoin:miter;stroke-miterlimit:4;stroke-opacity:1;stroke-dasharray:none;stroke-dashoffset:0;marker:none;visibility:visible;display:inline;overflow:visible;enable-background:accumulate" id="rect5260-1-3-8-5-5-0-4-2-3-0" width="10" height="10" x="514.046" y="906.148" ry="0"/><rect style="color:#000;fill:#fff;fill-opacity:1;fill-rule:nonzero;stroke:#000;stroke-width:1.09000003;stroke-linecap:butt;stroke-linejoin:miter;stroke-miterlimit:4;stroke-opacity:1;stroke-dasharray:none;stroke-dashoffset:0;marker:none;visibility:visible;display:inline;overflow:visible;enable-background:accumulate" id="rect5260-1-3-8-5-4-79-0-6-1-3-3" width="10" height="10" x="524.046" y="906.148" ry="0"/><rect style="color:#000;fill:#fff;fill-opacity:1;fill-rule:nonzero;stroke:#000;stroke-width:1.09000003;stroke-linecap:butt;stroke-linejoin:miter;stroke-miterlimit:4;stroke-opacity:1;stroke-dasharray:none;stroke-dashoffset:0;marker:none;visibility:visible;display:inline;overflow:visible;enable-background:accumulate" id="rect5260-1-3-8-2-8-4-96-2-3-5" width="10" height="10" x="504.046" y="916.148" ry="0"/><rect style="color:#000;fill:#fff;fill-opacity:1;fill-rule:nonzero;stroke:#000;stroke-width:1.09000003;stroke-linecap:butt;stroke-linejoin:miter;stroke-miterlimit:4;stroke-opacity:1;stroke-dasharray:none;stroke-dashoffset:0;marker:none;visibility:visible;display:inline;overflow:visible;enable-background:accumulate" id="rect5260-1-3-8-5-2-8-7-8-1-7-5" width="10" height="10" x="514.046" y="916.148" ry="0"/><rect style="color:#000;fill:#fff;fill-opacity:1;fill-rule:nonzero;stroke:#000;stroke-width:1.09000003;stroke-linecap:butt;stroke-linejoin:miter;stroke-miterlimit:4;stroke-opacity:1;stroke-dasharray:none;stroke-dashoffset:0;marker:none;visibility:visible;display:inline;overflow:visible;enable-background:accumulate" id="rect5260-1-3-8-5-4-3-4-0-5-7-3-8" width="10" height="10" x="524.046" y="916.148" ry="0"/><rect style="color:#000;fill:#fff;fill-opacity:1;fill-rule:nonzero;stroke:#000;stroke-width:1.09000003;stroke-linecap:butt;stroke-linejoin:miter;stroke-miterlimit:4;stroke-opacity:1;stroke-dasharray:none;stroke-dashoffset:0;marker:none;visibility:visible;display:inline;overflow:visible;enable-background:accumulate" id="rect5260-1-3-8-2-4-8-5-07-2-2-7" width="10" height="10" x="504.046" y="926.148" ry="0"/><rect style="color:#000;fill:#fff;fill-opacity:1;fill-rule:nonzero;stroke:#000;stroke-width:1.09000003;stroke-linecap:butt;stroke-linejoin:miter;stroke-miterlimit:4;stroke-opacity:1;stroke-dasharray:none;stroke-dashoffset:0;marker:none;visibility:visible;display:inline;overflow:visible;enable-background:accumulate" id="rect5260-1-3-8-5-2-3-21-7-8-6-6-1" width="10" height="10" x="514.046" y="926.148" ry="0"/><rect style="color:#000;fill:#fff;fill-opacity:1;fill-rule:nonzero;stroke:#000;stroke-width:1.09000003;stroke-linecap:butt;stroke-linejoin:miter;stroke-miterlimit:4;stroke-opacity:1;stroke-dasharray:none;stroke-dashoffset:0;marker:none;visibility:visible;display:inline;overflow:visible;enable-background:accumulate" id="rect5260-1-3-8-5-4-3-6-8-0-5-3-5-7" width="10" height="10" x="524.046" y="926.148" ry="0"/></g><text id="text5454-0" x="338" y="1260.362" style="font-size:14px;font-style:normal;font-variant:normal;font-weight:400;font-stretch:normal;line-height:125%;letter-spacing:0;word-spacing:0;fill:#000;fill-opacity:1;stroke:none;font-family:A;-inkscape-font-specification:A" xml:space="preserve"><tspan id="tspan5456-6" x="338" y="1260.362">f</tspan></text><path id="path5469-0" d="m 400,1267.3622 -50,0" style="fill:none;stroke:#000;stroke-width:1px;stroke-linecap:butt;stroke-linejoin:miter;stroke-opacity:1;marker-end:url(#Arrow1Mend-6)"/><path id="path5471-4" d="m 475.75,1267.3622 -30,0" style="fill:none;stroke:#000;stroke-width:1px;stroke-linecap:butt;stroke-linejoin:miter;stroke-opacity:1;marker-end:url(#Arrow1Mend-6)"/><text id="text7047-3" x="525" y="1267.362" style="font-size:14px;font-style:normal;font-variant:normal;font-weight:400;font-stretch:normal;line-height:125%;letter-spacing:0;word-spacing:0;fill:#000;fill-opacity:1;stroke:none;font-family:A;-inkscape-font-specification:A" xml:space="preserve"><tspan id="tspan7049-0" x="525" y="1267.362">x</tspan></text><path id="path5469-3" d="m 350,1257.3622 50,0" style="fill:none;stroke:#000;stroke-width:1px;stroke-linecap:butt;stroke-linejoin:miter;stroke-opacity:1;marker-end:url(#Arrow1Mend-6)"/><path id="path5471-3" d="m 445,1257.3622 30,0" style="fill:none;stroke:#000;stroke-width:1px;stroke-linecap:butt;stroke-linejoin:miter;stroke-opacity:1;marker-end:url(#Arrow1Mend-6)"/><text id="text7277" x="400" y="1244.362" style="font-size:14px;font-style:normal;font-variant:normal;font-weight:400;font-stretch:normal;line-height:125%;letter-spacing:0;word-spacing:0;fill:#000;fill-opacity:1;stroke:none;font-family:A;-inkscape-font-specification:A" xml:space="preserve"><tspan id="tspan7279" x="400" y="1244.362">Query</tspan></text><text id="text7277-1" x="403.514" y="1295.362" style="font-size:14px;font-style:normal;font-variant:normal;font-weight:400;font-stretch:normal;line-height:125%;letter-spacing:0;word-spacing:0;fill:#000;fill-opacity:1;stroke:none;font-family:A;-inkscape-font-specification:A" xml:space="preserve"><tspan id="tspan7279-4" x="403.514" y="1295.362">Copy</tspan></text><text id="text7277-2" x="275" y="1272.362" style="font-size:14px;font-style:normal;font-variant:normal;font-weight:400;font-stretch:normal;line-height:125%;letter-spacing:0;word-spacing:0;fill:#000;fill-opacity:1;stroke:none;font-family:A;-inkscape-font-specification:A" xml:space="preserve"><tspan id="tspan7279-9" x="275" y="1272.362">Execution</tspan></text><text id="text15575-7-2" x="290" y="1293.862" style="font-size:14px;font-style:normal;font-variant:normal;font-weight:400;font-stretch:normal;line-height:125%;letter-spacing:0;word-spacing:0;fill:#000;fill-opacity:1;stroke:none;font-family:Monaco;-inkscape-font-specification:Monaco" xml:space="preserve"><tspan id="tspan15577-7-4" x="290" y="1293.862">f(x)</tspan></text></g></g></svg>