<svg xmlns="http://www.w3.org/2000/svg" xmlns:svg="http://www.w3.org/2000/svg" id="svg3070" width="469.917" height="519.431" version="1.1"><metadata id="metadata3075"/><g id="layer1" transform="translate(-35.032329,-1.1170654)"><path style="fill:none;stroke:#000;stroke-width:2.5;stroke-linecap:butt;stroke-linejoin:miter;stroke-miterlimit:4;stroke-opacity:1;stroke-dasharray:none" id="path4940" d="m 258.69134,251.48054 0,-28.01817 -28.01817,0 0,28.01817 -56.03635,0 0,-28.01817 28.01817,0 0,-28.01818 -28.01817,0 0,-28.01816 56.03635,0 0,28.01816 28.01817,0 0,-56.03634 -28.01817,0 0,-28.01818 28.01817,0 0,-56.036346 -28.01817,0 0,28.018176 -28.01818,0 0,-28.018176 -28.01817,0 0,56.036346 28.01817,0 0,28.01818 -84.05454,0 0,-28.01818 28.01819,0 0,-56.036346 -28.01819,0 0,28.018176 -28.01817,0 0,-28.018176 -28.018175,0 0,56.036346 28.018175,0 0,28.01818 -28.018175,0 0,56.03634 28.018175,0 0,-28.01816 56.03636,0 0,28.01816 -28.01819,0 0,28.01818 28.01819,0 0,28.01817 -56.03636,0 0,-28.01817 -28.018175,0 0,28.01817"/><text xml:space="preserve" style="font-size:14px;font-style:normal;font-variant:normal;font-weight:400;font-stretch:normal;line-height:125%;letter-spacing:0;word-spacing:0;fill:#000;fill-opacity:1;stroke:none;font-family:Monaco;-inkscape-font-specification:Monaco" id="text4007" x="99" y="37.362"><tspan id="tspan4009" x="99" y="37.362">Hilbert Layout</tspan></text><text xml:space="preserve" style="font-size:14px;font-style:normal;font-variant:normal;font-weight:400;font-stretch:normal;line-height:125%;letter-spacing:0;word-spacing:0;fill:#000;fill-opacity:1;stroke:none;font-family:Monaco;-inkscape-font-specification:Monaco" id="text4007-4" x="310" y="37.362"><tspan id="tspan4009-1" x="310" y="37.362">Row-Major Order</tspan></text><text xml:space="preserve" style="font-size:14px;font-style:normal;font-variant:normal;font-weight:400;font-stretch:normal;line-height:125%;letter-spacing:0;word-spacing:0;fill:#000;fill-opacity:1;stroke:none;font-family:Monaco;-inkscape-font-specification:Monaco" id="text4007-4-9" x="86" y="492.362"><tspan id="tspan4009-1-9" x="86" y="492.362">Column Major Order</tspan></text><path style="color:#000;fill:none;stroke:#000;stroke-width:2.5;stroke-linecap:butt;stroke-linejoin:miter;stroke-miterlimit:4;stroke-opacity:1;stroke-dasharray:none;stroke-dashoffset:0;marker:none;visibility:visible;display:inline;overflow:visible;enable-background:accumulate" id="path3025" d="m 280,52.362179 200,0 -200,53.589841 200,1.41016 -200,50 200,0 -200,50 200,0 -200,45 200,0"/><path style="color:#000;fill:none;stroke:#000;stroke-width:2.5;stroke-linecap:butt;stroke-linejoin:miter;stroke-miterlimit:4;stroke-opacity:1;stroke-dasharray:none;stroke-dashoffset:0;marker:none;visibility:visible;display:inline;overflow:visible;enable-background:accumulate" id="path3025-3" d="m 260,267.36218 0,200 -53.58984,-200 -1.41016,200 -50,-200 0,200 -50,-200 0,200 -45,-200 0,200"/><text xml:space="preserve" style="font-size:14px;font-style:normal;font-variant:normal;font-weight:400;font-stretch:normal;line-height:125%;letter-spacing:0;word-spacing:0;fill:#000;fill-opacity:1;stroke:none;font-family:Monaco;-inkscape-font-specification:Monaco" id="text4007-4-9-2" x="344" y="490.362"><tspan id="tspan4009-1-9-5" x="344" y="490.362">Z-Order</tspan></text><polyline transform="translate(244,-41.452271)" style="fill:none;stroke:#000;stroke-width:2.5;color:#000;stroke-linecap:butt;stroke-linejoin:miter;stroke-miterlimit:4;stroke-opacity:1;stroke-dasharray:none;stroke-dashoffset:0;marker:none;visibility:visible;display:inline;overflow:visible;enable-background:accumulate" id="polyline3198" points="229.333 507.112 201.556 507.112 229.333 479.333 201.556 479.333 173.778 507.112 146 507.112 173.778 479.333 146 479.333 229.333 451.555 201.556 451.555 229.333 423.778 201.556 423.778 173.778 451.555 146 451.555 173.778 423.778 146 423.778 118.223 507.112 90.444 507.112 118.223 479.333 90.444 479.333 62.667 507.112 34.889 507.112 62.667 479.333 34.889 479.333 118.223 451.555 90.444 451.555 118.223 423.778 90.444 423.778 62.667 451.555 34.889 451.555 62.667 423.778 34.889 423.778 229.333 396 201.556 396 229.333 368.223 201.556 368.223 173.778 396 146 396 173.778 368.223 146 368.223 229.333 340.444 201.556 340.444 229.333 312.667 201.556 312.667 173.778 340.444 146 340.444 173.778 312.667 146 312.667 118.223 396 90.444 396 118.223 368.223 90.444 368.223 62.667 396 34.889 396 62.667 368.223 34.889 368.223 118.223 340.444 90.444 340.444 118.223 312.667 90.444 312.667 62.667 340.444 34.889 340.444 62.667 312.667 34.889 312.667"/></g></svg>