<svg xmlns="http://www.w3.org/2000/svg" xmlns:svg="http://www.w3.org/2000/svg" id="svg3070" width="469.917" height="519.431" version="1.1"><metadata id="metadata3075"/><g id="layer1" transform="translate(-35.032329,-1.1170654)"><path style="fill:none;stroke:#000;stroke-width:5;stroke-linecap:butt;stroke-linejoin:miter;stroke-miterlimit:4;stroke-opacity:1;stroke-dasharray:none" id="path4940" d="m 258.69134,251.48054 0,-28.01817 -28.01817,0 0,28.01817 -56.03635,0 0,-28.01817 28.01817,0 0,-28.01818 -28.01817,0 0,-28.01816 56.03635,0 0,28.01816 28.01817,0 0,-56.03634 -28.01817,0 0,-28.01818 28.01817,0 0,-56.036346 -28.01817,0 0,28.018176 -28.01818,0 0,-28.018176 -28.01817,0 0,56.036346 28.01817,0 0,28.01818 -84.05454,0 0,-28.01818 28.01819,0 0,-56.036346 -28.01819,0 0,28.018176 -28.01817,0 0,-28.018176 -28.018175,0 0,56.036346 28.018175,0 0,28.01818 -28.018175,0 0,56.03634 28.018175,0 0,-28.01816 56.03636,0 0,28.01816 -28.01819,0 0,28.01818 28.01819,0 0,28.01817 -56.03636,0 0,-28.01817 -28.018175,0 0,28.01817"/><g id="g3982" transform="matrix(1.025641,0,0,1.0252805,36.410265,42.678618)"><rect id="rect3868" width="94.617" height="94.617" x="240" y="12.362" ry="0" style="color:#000;fill:#fff;fill-opacity:1;fill-rule:nonzero;stroke:#000;stroke-width:5.38310051;stroke-linecap:butt;stroke-linejoin:miter;stroke-miterlimit:4;stroke-opacity:1;stroke-dasharray:none;stroke-dashoffset:0;marker:none;visibility:visible;display:inline;overflow:visible;enable-background:accumulate"/><rect id="rect3868-9" width="94.617" height="94.617" x="335" y="12.362" ry="0" style="color:#000;fill:#fff;fill-opacity:1;fill-rule:nonzero;stroke:#000;stroke-width:5.38310051;stroke-linecap:butt;stroke-linejoin:miter;stroke-miterlimit:4;stroke-opacity:1;stroke-dasharray:none;stroke-dashoffset:0;marker:none;visibility:visible;display:inline;overflow:visible;enable-background:accumulate"/><rect id="rect3868-9-0" width="94.617" height="94.617" x="240" y="107.362" ry="0" style="color:#000;fill:#fff;fill-opacity:1;fill-rule:nonzero;stroke:#000;stroke-width:5.38310051;stroke-linecap:butt;stroke-linejoin:miter;stroke-miterlimit:4;stroke-opacity:1;stroke-dasharray:none;stroke-dashoffset:0;marker:none;visibility:visible;display:inline;overflow:visible;enable-background:accumulate"/><rect id="rect3868-9-0-3" width="94.617" height="94.617" x="335" y="107.362" ry="0" style="color:#000;fill:#fff;fill-opacity:1;fill-rule:nonzero;stroke:#000;stroke-width:5.38310051;stroke-linecap:butt;stroke-linejoin:miter;stroke-miterlimit:4;stroke-opacity:1;stroke-dasharray:none;stroke-dashoffset:0;marker:none;visibility:visible;display:inline;overflow:visible;enable-background:accumulate"/></g><g id="g3978" transform="matrix(1.0133256,0,0,1.039484,41.15914,32.648719)"><rect id="rect3868-4" width="192.37" height="93.496" x="21.123" y="233.486" ry="0" style="color:#000;fill:#fff;fill-opacity:1;fill-rule:nonzero;stroke:#000;stroke-width:5;stroke-linecap:butt;stroke-linejoin:miter;stroke-miterlimit:4;stroke-opacity:1;stroke-dasharray:none;stroke-dashoffset:0;marker:none;visibility:visible;display:inline;overflow:visible;enable-background:accumulate"/><rect id="rect3868-9-0-8" width="192.37" height="93.496" x="21.123" y="327.36" ry="0" style="color:#000;fill:#fff;fill-opacity:1;fill-rule:nonzero;stroke:#000;stroke-width:5;stroke-linecap:butt;stroke-linejoin:miter;stroke-miterlimit:4;stroke-opacity:1;stroke-dasharray:none;stroke-dashoffset:0;marker:none;visibility:visible;display:inline;overflow:visible;enable-background:accumulate"/></g><g id="g3974" transform="matrix(0,1.0129899,-1.0396611,0,688.9215,0.70798278)"><rect id="rect3868-4-6" width="192.37" height="93.496" x="271.123" y="203.486" ry="0" style="color:#000;fill:#fff;fill-opacity:1;fill-rule:nonzero;stroke:#000;stroke-width:5;stroke-linecap:butt;stroke-linejoin:miter;stroke-miterlimit:4;stroke-opacity:1;stroke-dasharray:none;stroke-dashoffset:0;marker:none;visibility:visible;display:inline;overflow:visible;enable-background:accumulate"/><rect id="rect3868-9-0-8-5" width="192.37" height="93.496" x="271.123" y="297.36" ry="0" style="color:#000;fill:#fff;fill-opacity:1;fill-rule:nonzero;stroke:#000;stroke-width:5;stroke-linecap:butt;stroke-linejoin:miter;stroke-miterlimit:4;stroke-opacity:1;stroke-dasharray:none;stroke-dashoffset:0;marker:none;visibility:visible;display:inline;overflow:visible;enable-background:accumulate"/></g><text xml:space="preserve" style="font-size:14px;font-style:normal;font-variant:normal;font-weight:400;font-stretch:normal;line-height:125%;letter-spacing:0;word-spacing:0;fill:#000;fill-opacity:1;stroke:none;font-family:Monaco;-inkscape-font-specification:Monaco" id="text4007" x="105" y="37.362"><tspan id="tspan4009" x="105" y="37.362">Fractal Layout</tspan></text><text xml:space="preserve" style="font-size:14px;font-style:normal;font-variant:normal;font-weight:400;font-stretch:normal;line-height:125%;letter-spacing:0;word-spacing:0;fill:#000;fill-opacity:1;stroke:none;font-family:Monaco;-inkscape-font-specification:Monaco" id="text4007-4" x="280" y="37.362"><tspan id="tspan4009-1" x="280" y="37.362">Multidimensional Chunks</tspan></text><text xml:space="preserve" style="font-size:14px;font-style:normal;font-variant:normal;font-weight:400;font-stretch:normal;line-height:125%;letter-spacing:0;word-spacing:0;fill:#000;fill-opacity:1;stroke:none;font-family:Monaco;-inkscape-font-specification:Monaco" id="text4007-4-9" x="90" y="492.362"><tspan id="tspan4009-1-9" x="90" y="492.362">1D Chunking (y)</tspan></text><text xml:space="preserve" style="font-size:14px;font-style:normal;font-variant:normal;font-weight:400;font-stretch:normal;line-height:125%;letter-spacing:0;word-spacing:0;fill:#000;fill-opacity:1;stroke:none;font-family:Monaco;-inkscape-font-specification:Monaco" id="text4007-4-9-5" x="315" y="492.362"><tspan id="tspan4009-1-9-5" x="315" y="492.362">1D Chunking (x)</tspan></text></g></svg>