<svg xmlns="http://www.w3.org/2000/svg" xmlns:svg="http://www.w3.org/2000/svg" id="svg4261" width="195.04" height="171.639" version="1.1"><defs id="defs4263"><marker id="Arrow1Mend" orient="auto" refX="0" refY="0" style="overflow:visible"><path id="path11282" d="M 0,0 5,-5 -12.5,0 5,5 0,0 z" style="fill-rule:evenodd;stroke:#000;stroke-width:1pt" transform="matrix(-0.4,0,0,-0.4,-4,0)"/></marker></defs><metadata id="metadata4266"/><g id="layer1" transform="translate(8.9485967,-23.68502)"><g id="g5438" transform="translate(-790.55669,-863.58207)"><g id="g7430"><path style="fill:#000;fill-opacity:1;stroke:none" id="path5043-6" d="m 834.14909,934.73418 c -3.846,0 -7.708,-0.987 -9.534,-3.117 -0.054,0.236 -0.09,0.48 -0.09,0.737 v 3.877 c 0,3.435 4.988,4.998 9.625,4.998 4.637,0 9.625,-1.563 9.625,-4.998 v -3.877 c 0,-0.258 -0.036,-0.501 -0.09,-0.737 -1.826,2.13 -5.688,3.117 -9.536,3.117 z m 0,-7.495 c -3.846,0 -7.708,-0.987 -9.533,-3.117 -0.054,0.236 -0.091,0.479 -0.091,0.736 v 3.877 c 0,3.435 4.988,4.998 9.625,4.998 4.637,0 9.625,-1.563 9.625,-4.998 v -3.877 c 0,-0.257 -0.036,-0.501 -0.09,-0.737 -1.826,2.131 -5.688,3.118 -9.536,3.118 z m 10e-4,-14.877 c -4.637,0 -9.625,1.565 -9.625,5.001 v 3.876 c 0,3.435 4.988,4.998 9.625,4.998 4.637,0 9.625,-1.563 9.625,-4.998 v -3.876 c 0,-3.435 -4.988,-5.001 -9.625,-5.001 z m 0,8 c -4.211,0 -7.625,-1.343 -7.625,-3 0,-1.656 3.414,-3 7.625,-3 4.211,0 7.625,1.344 7.625,3 0,1.658 -3.414,3 -7.625,3 z"/><text xml:space="preserve" style="font-size:14px;font-style:normal;font-variant:normal;font-weight:400;font-stretch:normal;line-height:125%;letter-spacing:0;word-spacing:0;fill:#000;fill-opacity:1;stroke:none;font-family:A;-inkscape-font-specification:A" id="text5374" x="805.234" y="957.457"><tspan id="tspan5376" x="805.234" y="957.457">Memory</tspan></text></g></g><g id="g7435" transform="translate(-794.55669,-863.58207)"><g id="g5443" transform="translate(0.70574951,0)"><path style="fill:#000;fill-opacity:1;stroke:none" id="path5043-6-5" d="m 889.34788,934.63909 c -3.846,0 -7.708,-0.987 -9.534,-3.117 -0.054,0.236 -0.09,0.48 -0.09,0.737 v 3.877 c 0,3.435 4.988,4.998 9.625,4.998 4.637,0 9.625,-1.563 9.625,-4.998 v -3.877 c 0,-0.258 -0.036,-0.501 -0.09,-0.737 -1.826,2.13 -5.688,3.117 -9.536,3.117 z m 0,-7.495 c -3.846,0 -7.708,-0.987 -9.533,-3.117 -0.054,0.236 -0.091,0.479 -0.091,0.736 v 3.877 c 0,3.435 4.988,4.998 9.625,4.998 4.637,0 9.625,-1.563 9.625,-4.998 v -3.877 c 0,-0.257 -0.036,-0.501 -0.09,-0.737 -1.826,2.131 -5.688,3.118 -9.536,3.118 z m 10e-4,-14.877 c -4.637,0 -9.625,1.565 -9.625,5.001 v 3.876 c 0,3.435 4.988,4.998 9.625,4.998 4.637,0 9.625,-1.563 9.625,-4.998 v -3.876 c 0,-3.435 -4.988,-5.001 -9.625,-5.001 z m 0,8 c -4.211,0 -7.625,-1.343 -7.625,-3 0,-1.656 3.414,-3 7.625,-3 4.211,0 7.625,1.344 7.625,3 0,1.658 -3.414,3 -7.625,3 z"/><text xml:space="preserve" style="font-size:14px;font-style:normal;font-variant:normal;font-weight:400;font-stretch:normal;line-height:125%;letter-spacing:0;word-spacing:0;fill:#000;fill-opacity:1;stroke:none;font-family:A;-inkscape-font-specification:A" id="text5374-1" x="878.969" y="957.362"><tspan id="tspan5376-1" x="878.969" y="957.362">DB</tspan></text></g></g><g id="g7441" transform="translate(-794.55669,-863.58207)"><g id="g5451" transform="translate(-4,0)"><g id="g5448" transform="translate(0.58495748,0)" style="fill:#000;fill-opacity:1"><path id="path5043-6-5-3" d="m 945.37321,934.73418 c -3.846,0 -7.708,-0.987 -9.534,-3.117 -0.054,0.236 -0.09,0.48 -0.09,0.737 v 3.877 c 0,3.435 4.988,4.998 9.625,4.998 4.637,0 9.625,-1.563 9.625,-4.998 v -3.877 c 0,-0.258 -0.036,-0.501 -0.09,-0.737 -1.826,2.13 -5.688,3.117 -9.536,3.117 z m 0,-7.495 c -3.846,0 -7.708,-0.987 -9.533,-3.117 -0.054,0.236 -0.091,0.479 -0.091,0.736 v 3.877 c 0,3.435 4.988,4.998 9.625,4.998 4.637,0 9.625,-1.563 9.625,-4.998 v -3.877 c 0,-0.257 -0.036,-0.501 -0.09,-0.737 -1.826,2.131 -5.688,3.118 -9.536,3.118 z m 10e-4,-14.877 c -4.637,0 -9.625,1.565 -9.625,5.001 v 3.876 c 0,3.435 4.988,4.998 9.625,4.998 4.637,0 9.625,-1.563 9.625,-4.998 v -3.876 c 0,-3.435 -4.988,-5.001 -9.625,-5.001 z m 0,8 c -4.211,0 -7.625,-1.343 -7.625,-3 0,-1.656 3.414,-3 7.625,-3 4.211,0 7.625,1.344 7.625,3 0,1.658 -3.414,3 -7.625,3 z" style="fill:#000;fill-opacity:1;stroke:none"/></g><text xml:space="preserve" style="font-size:14px;font-style:normal;font-variant:normal;font-weight:400;font-stretch:normal;line-height:125%;letter-spacing:0;word-spacing:0;fill:#000;fill-opacity:1;stroke:none;font-family:A;-inkscape-font-specification:A" id="text5374-1-5" x="931.484" y="957.457"><tspan id="tspan5376-1-3" x="931.484" y="957.457">CSV</tspan></text></g></g><g id="g5594-6-7-2" transform="translate(25.443313,97.417899)"><rect id="rect5260-9-8-95" width="10" height="10" x="40" y="32.362" ry="0" style="color:#000;fill:#fff;fill-opacity:1;fill-rule:nonzero;stroke:#000;stroke-width:1.09000003;stroke-linecap:butt;stroke-linejoin:miter;stroke-miterlimit:4;stroke-opacity:1;stroke-dasharray:none;stroke-dashoffset:0;marker:none;visibility:visible;display:inline;overflow:visible;enable-background:accumulate"/><rect id="rect5260-1-1-2-7" width="10" height="10" x="50" y="32.362" ry="0" style="color:#000;fill:#fff;fill-opacity:1;fill-rule:nonzero;stroke:#000;stroke-width:1.09000003;stroke-linecap:butt;stroke-linejoin:miter;stroke-miterlimit:4;stroke-opacity:1;stroke-dasharray:none;stroke-dashoffset:0;marker:none;visibility:visible;display:inline;overflow:visible;enable-background:accumulate"/><rect id="rect5260-1-3-00-6-9" width="10" height="10" x="60" y="32.362" ry="0" style="color:#000;fill:#fff;fill-opacity:1;fill-rule:nonzero;stroke:#000;stroke-width:1.09000003;stroke-linecap:butt;stroke-linejoin:miter;stroke-miterlimit:4;stroke-opacity:1;stroke-dasharray:none;stroke-dashoffset:0;marker:none;visibility:visible;display:inline;overflow:visible;enable-background:accumulate"/><rect id="rect5260-1-3-8-58-1-608" width="10" height="10" x="70" y="32.362" ry="0" style="color:#000;fill:#fff;fill-opacity:1;fill-rule:nonzero;stroke:#000;stroke-width:1.09000003;stroke-linecap:butt;stroke-linejoin:miter;stroke-miterlimit:4;stroke-opacity:1;stroke-dasharray:none;stroke-dashoffset:0;marker:none;visibility:visible;display:inline;overflow:visible;enable-background:accumulate"/><rect id="rect5260-1-3-8-5-5-0-5" width="10" height="10" x="80" y="32.362" ry="0" style="color:#000;fill:#fff;fill-opacity:1;fill-rule:nonzero;stroke:#000;stroke-width:1.09000003;stroke-linecap:butt;stroke-linejoin:miter;stroke-miterlimit:4;stroke-opacity:1;stroke-dasharray:none;stroke-dashoffset:0;marker:none;visibility:visible;display:inline;overflow:visible;enable-background:accumulate"/><rect id="rect5260-1-3-8-5-4-79-0-0" width="10" height="10" x="90" y="32.362" ry="0" style="color:#000;fill:#fff;fill-opacity:1;fill-rule:nonzero;stroke:#000;stroke-width:1.09000003;stroke-linecap:butt;stroke-linejoin:miter;stroke-miterlimit:4;stroke-opacity:1;stroke-dasharray:none;stroke-dashoffset:0;marker:none;visibility:visible;display:inline;overflow:visible;enable-background:accumulate"/><rect id="rect5260-4-69-5-5" width="10" height="10" x="40" y="42.362" ry="0" style="color:#000;fill:#fff;fill-opacity:1;fill-rule:nonzero;stroke:#000;stroke-width:1.09000003;stroke-linecap:butt;stroke-linejoin:miter;stroke-miterlimit:4;stroke-opacity:1;stroke-dasharray:none;stroke-dashoffset:0;marker:none;visibility:visible;display:inline;overflow:visible;enable-background:accumulate"/><rect id="rect5260-1-5-6-0-4" width="10" height="10" x="50" y="42.362" ry="0" style="color:#000;fill:#fff;fill-opacity:1;fill-rule:nonzero;stroke:#000;stroke-width:1.09000003;stroke-linecap:butt;stroke-linejoin:miter;stroke-miterlimit:4;stroke-opacity:1;stroke-dasharray:none;stroke-dashoffset:0;marker:none;visibility:visible;display:inline;overflow:visible;enable-background:accumulate"/><rect id="rect5260-1-3-4-2-3-65" width="10" height="10" x="60" y="42.362" ry="0" style="color:#000;fill:#fff;fill-opacity:1;fill-rule:nonzero;stroke:#000;stroke-width:1.09000003;stroke-linecap:butt;stroke-linejoin:miter;stroke-miterlimit:4;stroke-opacity:1;stroke-dasharray:none;stroke-dashoffset:0;marker:none;visibility:visible;display:inline;overflow:visible;enable-background:accumulate"/><rect id="rect5260-1-3-8-2-8-4-0" width="10" height="10" x="70" y="42.362" ry="0" style="color:#000;fill:#fff;fill-opacity:1;fill-rule:nonzero;stroke:#000;stroke-width:1.09000003;stroke-linecap:butt;stroke-linejoin:miter;stroke-miterlimit:4;stroke-opacity:1;stroke-dasharray:none;stroke-dashoffset:0;marker:none;visibility:visible;display:inline;overflow:visible;enable-background:accumulate"/><rect id="rect5260-1-3-8-5-2-8-7-77" width="10" height="10" x="80" y="42.362" ry="0" style="color:#000;fill:#fff;fill-opacity:1;fill-rule:nonzero;stroke:#000;stroke-width:1.09000003;stroke-linecap:butt;stroke-linejoin:miter;stroke-miterlimit:4;stroke-opacity:1;stroke-dasharray:none;stroke-dashoffset:0;marker:none;visibility:visible;display:inline;overflow:visible;enable-background:accumulate"/><rect id="rect5260-1-3-8-5-4-3-4-0-45" width="10" height="10" x="90" y="42.362" ry="0" style="color:#000;fill:#fff;fill-opacity:1;fill-rule:nonzero;stroke:#000;stroke-width:1.09000003;stroke-linecap:butt;stroke-linejoin:miter;stroke-miterlimit:4;stroke-opacity:1;stroke-dasharray:none;stroke-dashoffset:0;marker:none;visibility:visible;display:inline;overflow:visible;enable-background:accumulate"/><rect id="rect5260-4-6-3-2-0" width="10" height="10" x="40" y="52.362" ry="0" style="color:#000;fill:#fff;fill-opacity:1;fill-rule:nonzero;stroke:#000;stroke-width:1.09000003;stroke-linecap:butt;stroke-linejoin:miter;stroke-miterlimit:4;stroke-opacity:1;stroke-dasharray:none;stroke-dashoffset:0;marker:none;visibility:visible;display:inline;overflow:visible;enable-background:accumulate"/><rect id="rect5260-1-5-9-2-5-29" width="10" height="10" x="50" y="52.362" ry="0" style="color:#000;fill:#fff;fill-opacity:1;fill-rule:nonzero;stroke:#000;stroke-width:1.09000003;stroke-linecap:butt;stroke-linejoin:miter;stroke-miterlimit:4;stroke-opacity:1;stroke-dasharray:none;stroke-dashoffset:0;marker:none;visibility:visible;display:inline;overflow:visible;enable-background:accumulate"/><rect id="rect5260-1-3-4-1-6-2-5" width="10" height="10" x="60" y="52.362" ry="0" style="color:#000;fill:#fff;fill-opacity:1;fill-rule:nonzero;stroke:#000;stroke-width:1.09000003;stroke-linecap:butt;stroke-linejoin:miter;stroke-miterlimit:4;stroke-opacity:1;stroke-dasharray:none;stroke-dashoffset:0;marker:none;visibility:visible;display:inline;overflow:visible;enable-background:accumulate"/><rect id="rect5260-1-3-8-2-4-8-5-7" width="10" height="10" x="70" y="52.362" ry="0" style="color:#000;fill:#fff;fill-opacity:1;fill-rule:nonzero;stroke:#000;stroke-width:1.09000003;stroke-linecap:butt;stroke-linejoin:miter;stroke-miterlimit:4;stroke-opacity:1;stroke-dasharray:none;stroke-dashoffset:0;marker:none;visibility:visible;display:inline;overflow:visible;enable-background:accumulate"/><rect id="rect5260-1-3-8-5-2-3-21-7-4" width="10" height="10" x="80" y="52.362" ry="0" style="color:#000;fill:#fff;fill-opacity:1;fill-rule:nonzero;stroke:#000;stroke-width:1.09000003;stroke-linecap:butt;stroke-linejoin:miter;stroke-miterlimit:4;stroke-opacity:1;stroke-dasharray:none;stroke-dashoffset:0;marker:none;visibility:visible;display:inline;overflow:visible;enable-background:accumulate"/><rect id="rect5260-1-3-8-5-4-3-6-8-0-2" width="10" height="10" x="90" y="52.362" ry="0" style="color:#000;fill:#fff;fill-opacity:1;fill-rule:nonzero;stroke:#000;stroke-width:1.09000003;stroke-linecap:butt;stroke-linejoin:miter;stroke-miterlimit:4;stroke-opacity:1;stroke-dasharray:none;stroke-dashoffset:0;marker:none;visibility:visible;display:inline;overflow:visible;enable-background:accumulate"/><rect id="rect5260-4-6-7-3-6-2" width="10" height="10" x="40" y="62.362" ry="0" style="color:#000;fill:#fff;fill-opacity:1;fill-rule:nonzero;stroke:#000;stroke-width:1.09000003;stroke-linecap:butt;stroke-linejoin:miter;stroke-miterlimit:4;stroke-opacity:1;stroke-dasharray:none;stroke-dashoffset:0;marker:none;visibility:visible;display:inline;overflow:visible;enable-background:accumulate"/><rect id="rect5260-1-5-9-0-6-4-19" width="10" height="10" x="50" y="62.362" ry="0" style="color:#000;fill:#fff;fill-opacity:1;fill-rule:nonzero;stroke:#000;stroke-width:1.09000003;stroke-linecap:butt;stroke-linejoin:miter;stroke-miterlimit:4;stroke-opacity:1;stroke-dasharray:none;stroke-dashoffset:0;marker:none;visibility:visible;display:inline;overflow:visible;enable-background:accumulate"/><rect id="rect5260-1-3-4-1-8-5-7-6" width="10" height="10" x="60" y="62.362" ry="0" style="color:#000;fill:#fff;fill-opacity:1;fill-rule:nonzero;stroke:#000;stroke-width:1.09000003;stroke-linecap:butt;stroke-linejoin:miter;stroke-miterlimit:4;stroke-opacity:1;stroke-dasharray:none;stroke-dashoffset:0;marker:none;visibility:visible;display:inline;overflow:visible;enable-background:accumulate"/><rect id="rect5260-1-3-8-2-4-1-0-6-11" width="10" height="10" x="70" y="62.362" ry="0" style="color:#000;fill:#fff;fill-opacity:1;fill-rule:nonzero;stroke:#000;stroke-width:1.09000003;stroke-linecap:butt;stroke-linejoin:miter;stroke-miterlimit:4;stroke-opacity:1;stroke-dasharray:none;stroke-dashoffset:0;marker:none;visibility:visible;display:inline;overflow:visible;enable-background:accumulate"/><rect id="rect5260-1-3-8-5-2-3-6-8-1-7" width="10" height="10" x="80" y="62.362" ry="0" style="color:#000;fill:#fff;fill-opacity:1;fill-rule:nonzero;stroke:#000;stroke-width:1.09000003;stroke-linecap:butt;stroke-linejoin:miter;stroke-miterlimit:4;stroke-opacity:1;stroke-dasharray:none;stroke-dashoffset:0;marker:none;visibility:visible;display:inline;overflow:visible;enable-background:accumulate"/><rect id="rect5260-1-3-8-5-4-3-6-4-1-4-80" width="10" height="10" x="90" y="62.362" ry="0" style="color:#000;fill:#fff;fill-opacity:1;fill-rule:nonzero;stroke:#000;stroke-width:1.09000003;stroke-linecap:butt;stroke-linejoin:miter;stroke-miterlimit:4;stroke-opacity:1;stroke-dasharray:none;stroke-dashoffset:0;marker:none;visibility:visible;display:inline;overflow:visible;enable-background:accumulate"/></g><path style="fill:none;stroke:#000;stroke-width:1px;stroke-linecap:butt;stroke-linejoin:miter;stroke-opacity:1;marker-end:url(#Arrow1Mend)" id="path13688-3" d="m 95.443313,103.78008 0,20"/></g></svg>