<svg xmlns="http://www.w3.org/2000/svg" xmlns:svg="http://www.w3.org/2000/svg" xmlns:xlink="http://www.w3.org/1999/xlink" id="svg2" width="1499.992" height="845" x="0" y="0" enable-background="new -379.933 41.094 1499.992 845" version="1.1" viewBox="-379.933 41.094 1499.992 845" xml:space="preserve"><linearGradient id="SVGID_1_" x1="370.564" x2="370.564" y1="886.594" y2="40.594" gradientUnits="userSpaceOnUse"><stop offset="0" style="stop-color:#fff"/><stop offset="1" style="stop-color:#e5eefa"/></linearGradient><rect width="1499" height="846" x="-378.937" y="40.594" fill="url(#SVGID_1_)"/><g><image width="280" height="128" opacity=".2" overflow="visible" transform="matrix(1 0 0 1 90.0635 239.5938)" xlink:href="66C22E8019780DBF.png"/><g><path fill="#FFF" d="M363.325,352.947c0,3.312-2.687,5.998-6,5.998H102.802c-3.313,0-6-2.687-6-5.998V250.942 c0-3.312,2.687-5.997,6-5.997h254.522c3.313,0,6,2.685,6,5.997V352.947z"/><path fill="none" stroke="#999" stroke-miterlimit="10" d="M363.325,352.947c0,3.312-2.687,5.998-6,5.998H102.802 c-3.313,0-6-2.687-6-5.998V250.942c0-3.312,2.687-5.997,6-5.997h254.522c3.313,0,6,2.685,6,5.997V352.947z"/></g></g><path fill="#AAD4F9" stroke="#999" stroke-miterlimit="10" d="M357.325,244.945H102.802c-3.313,0-6,2.609-6,5.827v1.087v5.179	v44.908h266.522v-44.908v-5.179v-1.087C363.325,247.554,360.638,244.945,357.325,244.945z"/><g><image width="280" height="128" opacity=".2" overflow="visible" transform="matrix(1 0 0 1 370.0635 239.5938)" xlink:href="66C22E8019780DBA.png"/><g><path fill="#FFF" d="M643.325,352.947c0,3.312-2.688,5.998-6,5.998H382.802c-3.313,0-6-2.687-6-5.998V250.942 c0-3.312,2.687-5.997,6-5.997h254.523c3.312,0,6,2.685,6,5.997V352.947z"/><path fill="none" stroke="#999" stroke-miterlimit="10" d="M643.325,352.947c0,3.312-2.688,5.998-6,5.998H382.802 c-3.313,0-6-2.687-6-5.998V250.942c0-3.312,2.687-5.997,6-5.997h254.523c3.312,0,6,2.685,6,5.997V352.947z"/></g></g><path fill="#AAD4F9" stroke="#999" stroke-miterlimit="10" d="M637.325,244.945H382.802c-3.313,0-6,2.609-6,5.827v1.087v5.179	v44.908h266.523v-44.908v-5.179v-1.087C643.325,247.554,640.638,244.945,637.325,244.945z"/><g><text font-family="'Gotham-Book'" font-size="38" transform="matrix(1 0 0 1 126.2432 285.3301)">numpy.py</text><text font-family="'Gotham-Book'" font-size="38" transform="matrix(1 0 0 1 139.2383 342)">numpy.c</text><text font-family="'Gotham-Book'" font-size="38" transform="matrix(1 0 0 1 413.165 285.3301)">pandas.py</text><text font-family="'Gotham-Book'" font-size="38" transform="matrix(1 0 0 1 402.2593 342)">pandas.pyx</text><text enable-background="new" transform="matrix(1 0 0 1 -9.9321 271)"><tspan x="0" y="0" fill="#6B6B6B" font-family="'Gotham-Book'" font-size="18">High-level</tspan><tspan x="0" y="20" fill="#6B6B6B" font-family="'Gotham-Book'" font-size="18">interface</tspan></text><text enable-background="new" transform="matrix(1 0 0 1 -9.9331 328)"><tspan x="0" y="0" fill="#6B6B6B" font-family="'Gotham-Book'" font-size="18">Low-level</tspan><tspan x="0" y="20" fill="#6B6B6B" font-family="'Gotham-Book'" font-size="18">fast code</tspan></text></g></svg>